<mxfile host="app.diagrams.net" modified="2024-03-07T13:58:37.816Z" agent="Mozilla/5.0 (Windows NT 10.0; Win64; x64) AppleWebKit/537.36 (KHTML, like Gecko) Chrome/122.0.0.0 Safari/537.36" version="23.1.1" etag="tzysRDfSRbM4iF7TtIFZ" type="github">
  <diagram name="PÃ¡gina-1" id="2Q-ebxtmN5NXNgTe0rHU">
    <mxGraphModel>
      <root>
        <mxCell id="0" />
        <mxCell id="1" parent="0" />
      </root>
    </mxGraphModel>
  </diagram>
</mxfile>
